# xmcd
#
# Track frame offsets:
#	150
#	31321
#	62590
#	90008
#	112014
#	138020
#	160048
#	184220
#	207690
#	232679
#	254072
#	278115
#
# Disc length: 3966 seconds
#
# Revision: 0
# Processed by: cddbd v1.5.2PL0 Copyright (c) Steve Scherf et al.
# Submitted via: EZCDAudioConverter 7.1.7.1
#
DISCID=9d0f7c0c
DTITLE=谢珊 - 色戒 DTS-ES6.1
DYEAR=2008
DGENRE=
TTITLE0=白狐
TTITLE1=那一夜
TTITLE2=再别康桥
TTITLE3=酒醉的探戈
TTITLE4=菊花台
TTITLE5=冰吻
TTITLE6=不想看见你哭
TTITLE7=不值得
TTITLE8=赤道和北极
TTITLE9=黄玫瑰
TTITLE10=蓝眼泪
TTITLE11=慢慢的
EXTD=
EXTT0=
EXTT1=
EXTT2=
EXTT3=
EXTT4=
EXTT5=
EXTT6=
EXTT7=
EXTT8=
EXTT9=
EXTT10=
EXTT11=
PLAYORDER=
